<?xml version="1.0" encoding="UTF-8" standalone="no"?>
<!-- Created with Inkscape (http://www.inkscape.org/) -->

<svg
   xmlns:dc="http://purl.org/dc/elements/1.1/"
   xmlns:cc="http://creativecommons.org/ns#"
   xmlns:rdf="http://www.w3.org/1999/02/22-rdf-syntax-ns#"
   xmlns:svg="http://www.w3.org/2000/svg"
   xmlns="http://www.w3.org/2000/svg"
   xmlns:sodipodi="http://sodipodi.sourceforge.net/DTD/sodipodi-0.dtd"
   xmlns:inkscape="http://www.inkscape.org/namespaces/inkscape"
   width="131.9637mm"
   height="147.81839mm"
   viewBox="0 0 131.9637 147.81839"
   version="1.1"
   id="svg8"
   inkscape:version="0.92.5 (2060ec1f9f, 2020-04-08)"
   sodipodi:docname="logo.svg"
   inkscape:export-filename="/home/sdf/Documents/Projet_final/BiblioClick/static/images/logo.png"
   inkscape:export-xdpi="96"
   inkscape:export-ydpi="96">
  <defs
     id="defs2">
    <meshgradient
       inkscape:collect="always"
       id="meshgradient821"
       gradientUnits="userSpaceOnUse"
       x="100.28647"
       y="262.81046">
      <meshrow
         id="meshrow825">
        <meshpatch
           id="meshpatch827">
          <stop
             path="c 516.252,55.7147  206.793,-25.714  498.76,-1.13687e-13"
             style="stop-color:#23a5ff;stop-opacity:1"
             id="stop829" />
          <stop
             path="c 0,186.228  -1.42925,366.75  -1.42857,552.97"
             style="stop-color:#513889;stop-opacity:1"
             id="stop831" />
          <stop
             path="c -17.4564,13.8152  -269.647,10.001  -497.331,5.714"
             style="stop-color:#513889;stop-opacity:1"
             id="stop833" />
          <stop
             path="c 0.00472,-186.227  1.08666,-363.711  -0.00043,-558.684"
             style="stop-color:#e08402;stop-opacity:1"
             id="stop835" />
        </meshpatch>
      </meshrow>
    </meshgradient>
  </defs>
  <sodipodi:namedview
     id="base"
     pagecolor="#ffffff"
     bordercolor="#666666"
     borderopacity="1.0"
     inkscape:pageopacity="0.0"
     inkscape:pageshadow="2"
     inkscape:zoom="1.979899"
     inkscape:cx="0.32327169"
     inkscape:cy="267.49078"
     inkscape:document-units="mm"
     inkscape:current-layer="layer1"
     showgrid="false"
     inkscape:window-width="1920"
     inkscape:window-height="1023"
     inkscape:window-x="0"
     inkscape:window-y="0"
     inkscape:window-maximized="1"
     fit-margin-top="0"
     fit-margin-left="0"
     fit-margin-right="0"
     fit-margin-bottom="0" />
  <metadata
     id="metadata5">
    <rdf:RDF>
      <cc:Work
         rdf:about="">
        <dc:format>image/svg+xml</dc:format>
        <dc:type
           rdf:resource="http://purl.org/dc/dcmitype/StillImage" />
        <dc:title></dc:title>
      </cc:Work>
    </rdf:RDF>
  </metadata>
  <g
     inkscape:label="Calque 1"
     inkscape:groupmode="layer"
     id="layer1"
     style="display:inline"
     transform="translate(-26.534128,-69.535267)">
    <path
       style="fill:url(#meshgradient821);fill-opacity:1;stroke:none;stroke-width:0.99999994px;stroke-linecap:butt;stroke-linejoin:miter;stroke-opacity:1"
       d="m 520.32617,262.81055 c -7.12816,-0.0134 -16.87096,1.50663 -29.72656,4.83203 -144.38139,37.34758 -199.8248,212.70624 -152.65234,235.77734 l 0.13671,-0.33594 c 39.31149,16.16202 103.45433,41.48028 141.75391,85.99805 19.14981,22.25889 31.83452,49.34164 31.65234,82.43359 -0.18206,33.09192 -13.21885,72.16359 -45.36914,118.43555 l -0.81836,-0.57617 c 32.07202,-46.15937 45.00294,-85.03345 45.1836,-117.86719 0.18066,-32.83374 -12.37159,-59.65487 -31.40235,-81.77539 -37.48131,-43.56664 -99.99446,-68.72788 -139.44921,-84.92578 l -26.48829,-3.53125 c -42.34965,-28.18772 -50.33751,-94.61665 -50.50586,-155.5625 -11.44839,0.67343 -15.3219,7.40707 -22.2246,17.17188 -1.51524,-10.43825 -5.55473,-16.83555 -18.18164,-16.16211 -19.69798,18.18273 -26.26451,64.64974 -39.39649,96.97461 -31.14637,7.07108 -164.586419,167.70255 -7.57617,158.08789 -21.54992,43.26818 -197.653485,76.43621 130.81445,44.95312 -32.99831,45.28849 -82.66339,95.62678 -7.07031,150.51172 H 233.3457 c -22.01291,-2.77791 -23.31892,21.46623 -17.17382,24.24414 L 458.73242,819.5957 C 539.03956,824.64647 729.16,586.66622 459.66211,459.72852 376.15531,436.71304 596.14384,262.9534 520.32617,262.81055 Z"
       id="path916"
       inkscape:connector-curvature="0"
       transform="scale(0.26458333)"
       inkscape:export-xdpi="96"
       inkscape:export-ydpi="96" />
    <path
       style="fill:#000000;fill-opacity:1;stroke:#000000;stroke-width:0.26458332px;stroke-linecap:butt;stroke-linejoin:miter;stroke-opacity:1"
       d="m 45.185871,137.01076 c -5.398896,-0.0579 -3.469497,4.01522 -5.223454,6.04201 3.741775,0.22273 7.750328,0.44532 8.0176,-5.74642 -1.102487,-0.19488 -2.022875,-0.28732 -2.794146,-0.29559 z"
       id="path920"
       inkscape:connector-curvature="0" />
    <ellipse
       style="opacity:0.26800005;fill:#ffffff;fill-opacity:1;stroke:none;stroke-width:1.40343511;stroke-miterlimit:0;stroke-dasharray:none;stroke-opacity:1"
       id="path925"
       cx="43.364887"
       cy="139.33493"
       rx="0.86265135"
       ry="1.5176061" />
  </g>
</svg>
